<svg class="svg-icon" style="width: 1em; height: 1em;vertical-align: middle;fill: currentColor;overflow: hidden;" viewBox="0 0 1024 1024" version="1.1" xmlns="http://www.w3.org/2000/svg"><path d="M512 512m-501.76 0a501.76 501.76 0 1 0 1003.52 0 501.76 501.76 0 1 0-1003.52 0Z" fill="#FFECE9" /><path d="M512 1013.76c169.984 0 320.1024-84.3776 410.8288-213.6064H101.1712C191.8976 929.3824 342.016 1013.76 512 1013.76z" fill="#0ABFB2" /><path d="M512 1024c-166.5024 0-323.1744-81.5104-419.2256-217.9072-2.2528-3.072-2.4576-7.168-0.6144-10.6496 1.8432-3.4816 5.3248-5.5296 9.0112-5.5296h821.6576c3.8912 0 7.3728 2.048 9.0112 5.5296 1.8432 3.4816 1.4336 7.5776-0.6144 10.6496C835.1744 942.4896 678.5024 1024 512 1024zM121.4464 810.3936C214.2208 931.6352 358.8096 1003.52 512 1003.52s297.7792-71.8848 390.5536-193.1264H121.4464z" fill="#1C1D21" /><path d="M512 1024c-136.8064 0-265.4208-53.248-362.0864-149.9136C53.248 777.4208 0 648.8064 0 512S53.248 246.5792 149.9136 149.9136C246.5792 53.248 375.1936 0 512 0s265.4208 53.248 362.0864 149.9136C970.752 246.5792 1024 375.1936 1024 512s-53.248 265.4208-149.9136 362.0864C777.4208 970.752 648.8064 1024 512 1024z m0-1003.52C241.0496 20.48 20.48 241.0496 20.48 512s220.5696 491.52 491.52 491.52 491.52-220.5696 491.52-491.52S782.9504 20.48 512 20.48z" fill="#1C1D21" /><path d="M512 430.2848m-158.5152 0a158.5152 158.5152 0 1 0 317.0304 0 158.5152 158.5152 0 1 0-317.0304 0Z" fill="#0ABFB2" /><path d="M504.832 323.1744c-5.3248 0-9.8304-4.096-10.24-9.6256-0.4096-5.7344 3.8912-10.4448 9.6256-10.8544 2.6624-0.2048 5.12-0.2048 7.7824-0.2048 5.7344 0 10.24 4.5056 10.24 10.24s-4.5056 10.24-10.24 10.24c-2.2528 0-4.3008 0-6.5536 0.2048h-0.6144zM400.1792 403.8656c-1.024 0-2.048-0.2048-3.2768-0.6144-5.3248-1.8432-8.192-7.5776-6.5536-12.9024 11.8784-36.2496 40.3456-65.9456 76.1856-79.6672 5.3248-2.048 11.264 0.6144 13.312 5.9392s-0.6144 11.264-5.9392 13.312c-29.9008 11.4688-53.8624 36.4544-63.8976 66.7648-1.4336 4.3008-5.5296 7.168-9.8304 7.168z" fill="#8CEEF9" /><path d="M420.0448 311.296c-3.2768 0-6.3488-1.4336-8.3968-4.3008-3.2768-4.5056-2.2528-11.0592 2.4576-14.336 3.6864-2.6624 7.5776-5.12 11.4688-7.3728 4.9152-2.8672 11.0592-1.2288 14.1312 3.4816 2.8672 4.9152 1.2288 11.0592-3.4816 14.1312-3.4816 2.048-6.7584 4.3008-10.0352 6.5536-1.8432 1.2288-4.096 1.8432-6.144 1.8432zM370.2784 369.4592c-1.6384 0-3.072-0.4096-4.5056-1.024-5.12-2.4576-7.168-8.6016-4.5056-13.7216 6.3488-12.4928 14.1312-24.3712 23.3472-35.0208 3.6864-4.3008 10.24-4.7104 14.5408-1.024 4.3008 3.6864 4.7104 10.24 1.024 14.5408-8.192 9.4208-14.9504 19.6608-20.48 30.72-2.048 3.4816-5.7344 5.5296-9.4208 5.5296z" fill="#1C1D21" /><path d="M512 599.04c-93.184 0-168.7552-75.776-168.7552-168.7552 0-13.7216 1.6384-27.4432 4.9152-40.7552 1.4336-5.5296 6.9632-8.8064 12.4928-7.3728 5.5296 1.4336 8.8064 6.9632 7.3728 12.4928-2.8672 11.6736-4.3008 23.7568-4.3008 35.84 0 81.7152 66.56 148.2752 148.2752 148.2752s148.2752-66.56 148.2752-148.2752c0-81.7152-66.56-148.2752-148.2752-148.2752-16.5888 0-32.768 2.6624-48.3328 7.9872-5.3248 1.8432-11.264-1.024-13.1072-6.3488-1.8432-5.3248 1.024-11.264 6.3488-13.1072 17.6128-6.144 36.0448-9.216 54.8864-9.216 93.184 0 168.7552 75.776 168.7552 168.7552 0.2048 93.184-75.3664 168.7552-168.5504 168.7552z" fill="#1C1D21" /><path d="M573.8496 509.5424l47.7184-60.416-14.1312-12.4928-75.9808 64.1024-6.144-106.2912h-26.624l-6.144 106.2912-75.9808-64.1024-14.1312 12.4928 47.7184 60.416c25.1904 31.744 37.6832 71.68 35.4304 112.0256l-10.24 178.3808H548.864l-10.24-178.3808c-2.4576-40.5504 10.0352-80.2816 35.2256-112.0256z" fill="#C67552" /><path d="M548.864 809.984h-73.728c-2.8672 0-5.5296-1.2288-7.3728-3.2768-1.8432-2.048-2.8672-4.7104-2.8672-7.5776l10.24-178.3808c2.2528-37.888-9.6256-75.3664-33.1776-105.0624l-47.7184-60.416c-3.2768-4.3008-2.8672-10.4448 1.2288-13.9264l14.1312-12.4928c3.8912-3.4816 9.4208-3.4816 13.312-0.2048l60.416 50.9952 4.9152-86.016c0.4096-5.3248 4.7104-9.6256 10.24-9.6256h26.624c5.3248 0 9.8304 4.3008 10.24 9.6256l4.9152 86.016 60.416-50.9952c3.8912-3.2768 9.6256-3.2768 13.312 0.2048l14.1312 12.4928c4.096 3.6864 4.5056 9.8304 1.2288 13.9264L581.632 515.6864c-23.552 29.9008-35.4304 67.1744-33.1776 105.0624l10.24 178.3808c0.2048 2.8672-0.8192 5.5296-2.8672 7.5776-1.4336 2.2528-4.3008 3.2768-6.9632 3.2768z m-62.8736-20.48h51.8144l-9.6256-167.5264c-2.4576-43.008 10.8544-85.1968 37.4784-118.9888l41.7792-52.8384-0.2048-0.2048-69.2224 58.368c-2.8672 2.4576-7.168 3.072-10.6496 1.6384-3.4816-1.4336-5.9392-4.9152-6.144-8.8064l-5.7344-96.6656h-7.3728l-5.7344 96.6656c-0.2048 3.8912-2.6624 7.3728-6.144 8.8064-3.4816 1.4336-7.7824 0.8192-10.6496-1.6384l-69.2224-58.368-0.2048 0.2048 41.7792 52.8384c26.624 33.792 39.936 75.9808 37.4784 118.9888l-9.4208 167.5264z m87.8592-279.9616z" fill="#1C1D21" /><path d="M200.704 725.6064l-6.144 74.1376h94.208l-6.144-74.1376z" fill="#C67552" /><path d="M288.768 809.984H194.56c-2.8672 0-5.5296-1.2288-7.5776-3.2768-1.8432-2.048-2.8672-4.9152-2.6624-7.7824l5.9392-74.3424c0.4096-5.3248 4.9152-9.4208 10.24-9.4208H282.624c5.3248 0 9.8304 4.096 10.24 9.4208l5.9392 74.3424c0.2048 2.8672-0.8192 5.7344-2.6624 7.7824s-4.5056 3.2768-7.3728 3.2768z m-83.1488-20.48h71.8848l-4.3008-53.8624h-63.2832l-4.3008 53.8624z" fill="#1C1D21" /><path d="M259.072 749.1584h-35.0208c-13.1072 0-23.552-10.4448-23.552-23.552s10.4448-23.552 23.552-23.552h35.0208c13.1072 0 23.552 10.4448 23.552 23.552 0 12.9024-10.4448 23.552-23.552 23.552z" fill="#FFC5B3" /><path d="M259.072 759.3984h-35.0208c-18.6368 0-33.792-15.1552-33.792-33.792s15.1552-33.792 33.792-33.792h35.0208c18.6368 0 33.792 15.1552 33.792 33.792s-15.1552 33.792-33.792 33.792z m-34.816-47.104c-7.3728 0-13.312 5.9392-13.312 13.312s5.9392 13.312 13.312 13.312h35.0208c7.3728 0 13.312-5.9392 13.312-13.312s-5.9392-13.312-13.312-13.312h-35.0208z" fill="#1C1D21" /><path d="M333.824 725.6064l-6.144 74.1376h94.208l-6.144-74.1376z" fill="#C67552" /><path d="M421.888 809.984h-94.208c-2.8672 0-5.5296-1.2288-7.5776-3.2768-1.8432-2.048-2.8672-4.9152-2.6624-7.7824l5.9392-74.3424c0.4096-5.3248 4.9152-9.4208 10.24-9.4208H415.744c5.3248 0 9.8304 4.096 10.24 9.4208l5.9392 74.3424c0.2048 2.8672-0.8192 5.7344-2.6624 7.7824s-4.5056 3.2768-7.3728 3.2768z m-83.1488-20.48h71.8848l-4.3008-53.8624h-63.2832l-4.3008 53.8624z" fill="#1C1D21" /><path d="M392.192 749.1584h-35.0208c-13.1072 0-23.552-10.4448-23.552-23.552s10.4448-23.552 23.552-23.552h35.0208c13.1072 0 23.552 10.4448 23.552 23.552 0 12.9024-10.4448 23.552-23.552 23.552z" fill="#FFC5B3" /><path d="M392.192 759.3984h-35.0208c-18.6368 0-33.792-15.1552-33.792-33.792s15.1552-33.792 33.792-33.792h35.0208c18.6368 0 33.792 15.1552 33.792 33.792s-15.1552 33.792-33.792 33.792z m-34.816-47.104c-7.3728 0-13.312 5.9392-13.312 13.312s5.9392 13.312 13.312 13.312h35.0208c7.3728 0 13.312-5.9392 13.312-13.312s-5.9392-13.312-13.312-13.312h-35.0208z" fill="#1C1D21" /><path d="M608.256 725.6064l-6.144 74.1376h94.208l-6.144-74.1376z" fill="#C67552" /><path d="M696.32 809.984h-94.208c-2.8672 0-5.5296-1.2288-7.5776-3.2768-1.8432-2.048-2.8672-4.9152-2.6624-7.7824l5.9392-74.3424c0.4096-5.3248 4.9152-9.4208 10.24-9.4208H690.176c5.3248 0 9.8304 4.096 10.24 9.4208l5.9392 74.3424c0.2048 2.8672-0.8192 5.7344-2.6624 7.7824s-4.5056 3.2768-7.3728 3.2768z m-83.1488-20.48h71.8848l-4.3008-53.8624h-63.2832l-4.3008 53.8624z" fill="#1C1D21" /><path d="M666.624 749.1584h-35.0208c-13.1072 0-23.552-10.4448-23.552-23.552s10.4448-23.552 23.552-23.552h35.0208c13.1072 0 23.552 10.4448 23.552 23.552 0 12.9024-10.4448 23.552-23.552 23.552z" fill="#FFC5B3" /><path d="M666.624 759.3984h-35.0208c-18.6368 0-33.792-15.1552-33.792-33.792s15.1552-33.792 33.792-33.792h35.0208c18.6368 0 33.792 15.1552 33.792 33.792s-15.1552 33.792-33.792 33.792z m-34.816-47.104c-7.3728 0-13.312 5.9392-13.312 13.312s5.9392 13.312 13.312 13.312h35.0208c7.3728 0 13.312-5.9392 13.312-13.312s-5.9392-13.312-13.312-13.312h-35.0208z" fill="#1C1D21" /><path d="M741.376 725.6064l-6.144 74.1376h94.208l-6.144-74.1376z" fill="#C67552" /><path d="M829.44 809.984h-94.208c-2.8672 0-5.5296-1.2288-7.5776-3.2768s-2.8672-4.9152-2.6624-7.7824l5.9392-74.3424c0.4096-5.3248 4.9152-9.4208 10.24-9.4208H823.296c5.3248 0 9.8304 4.096 10.24 9.4208l5.9392 74.3424c0.2048 2.8672-0.8192 5.7344-2.6624 7.7824s-4.5056 3.2768-7.3728 3.2768z m-83.1488-20.48h71.8848l-4.3008-53.8624h-63.2832l-4.3008 53.8624z" fill="#1C1D21" /><path d="M799.744 749.1584h-35.0208c-13.1072 0-23.552-10.4448-23.552-23.552s10.4448-23.552 23.552-23.552h35.0208c13.1072 0 23.552 10.4448 23.552 23.552 0 12.9024-10.4448 23.552-23.552 23.552z" fill="#FFC5B3" /><path d="M799.744 759.3984h-35.0208c-18.6368 0-33.792-15.1552-33.792-33.792s15.1552-33.792 33.792-33.792h35.0208c18.6368 0 33.792 15.1552 33.792 33.792s-15.1552 33.792-33.792 33.792z m-34.816-47.104c-7.3728 0-13.312 5.9392-13.312 13.312s5.9392 13.312 13.312 13.312h35.0208c7.3728 0 13.312-5.9392 13.312-13.312s-5.9392-13.312-13.312-13.312h-35.0208z" fill="#1C1D21" /><path d="M512 133.3248m-43.4176 0a43.4176 43.4176 0 1 0 86.8352 0 43.4176 43.4176 0 1 0-86.8352 0Z" fill="#FF8939" /><path d="M512 186.7776c-29.4912 0-53.6576-23.9616-53.6576-53.6576s23.9616-53.6576 53.6576-53.6576 53.6576 23.9616 53.6576 53.6576-24.1664 53.6576-53.6576 53.6576z m0-86.6304c-18.2272 0-33.1776 14.7456-33.1776 33.1776S493.568 166.5024 512 166.5024s33.1776-14.7456 33.1776-33.1776-14.9504-33.1776-33.1776-33.1776zM512 65.3312c-5.7344 0-10.24-4.5056-10.24-10.24V49.152c0-5.7344 4.5056-10.24 10.24-10.24s10.24 4.5056 10.24 10.24v5.9392c0 5.5296-4.5056 10.24-10.24 10.24zM512 227.5328c-5.7344 0-10.24-4.5056-10.24-10.24v-5.9392c0-5.7344 4.5056-10.24 10.24-10.24s10.24 4.5056 10.24 10.24v5.9392c0 5.7344-4.5056 10.24-10.24 10.24zM567.296 88.064c-2.6624 0-5.3248-1.024-7.168-3.072-4.096-4.096-4.096-10.4448 0-14.5408l4.096-4.096c4.096-4.096 10.4448-4.096 14.5408 0s4.096 10.4448 0 14.5408l-4.096 4.096c-2.048 2.2528-4.7104 3.072-7.3728 3.072zM452.608 202.9568c-2.6624 0-5.3248-1.024-7.168-3.072-4.096-4.096-4.096-10.4448 0-14.5408l4.096-4.096c4.096-4.096 10.4448-4.096 14.5408 0s4.096 10.4448 0 14.5408l-4.096 4.096c-2.2528 2.048-4.7104 3.072-7.3728 3.072zM596.1728 143.5648h-5.9392c-5.7344 0-10.24-4.5056-10.24-10.24s4.5056-10.24 10.24-10.24h5.9392c5.7344 0 10.24 4.5056 10.24 10.24s-4.7104 10.24-10.24 10.24zM433.7664 143.5648h-5.9392c-5.7344 0-10.24-4.5056-10.24-10.24s4.5056-10.24 10.24-10.24h5.9392c5.7344 0 10.24 4.5056 10.24 10.24s-4.5056 10.24-10.24 10.24zM571.392 202.9568c-2.6624 0-5.3248-1.024-7.168-3.072l-4.096-4.096c-4.096-4.096-4.096-10.4448 0-14.5408s10.4448-4.096 14.5408 0l4.096 4.096c4.096 4.096 4.096 10.4448 0 14.5408-2.048 2.048-4.7104 3.072-7.3728 3.072zM456.704 88.064c-2.6624 0-5.3248-1.024-7.168-3.072l-4.096-4.096c-4.096-4.096-4.096-10.4448 0-14.5408s10.4448-4.096 14.5408 0l4.096 4.096c4.096 4.096 4.096 10.4448 0 14.5408-2.048 2.2528-4.7104 3.072-7.3728 3.072zM374.3744 956.8256c-5.7344 0-10.24-4.5056-10.24-10.24v-12.9024c0-5.7344 4.5056-10.24 10.24-10.24s10.24 4.5056 10.24 10.24v12.9024c0 5.5296-4.5056 10.24-10.24 10.24zM374.3744 864.8704h-92.9792c-5.7344 0-10.24-4.5056-10.24-10.24s4.5056-10.24 10.24-10.24h92.9792c5.7344 0 10.24 4.5056 10.24 10.24s-4.5056 10.24-10.24 10.24zM232.448 864.8704h-11.0592c-5.7344 0-10.24-4.5056-10.24-10.24s4.5056-10.24 10.24-10.24h11.0592c5.7344 0 10.24 4.5056 10.24 10.24s-4.7104 10.24-10.24 10.24zM437.8624 915.6608c-2.6624 0-5.3248-1.024-7.168-3.072-4.096-4.096-4.096-10.4448 0-14.5408l30.3104-30.3104v-67.7888c0-5.7344 4.5056-10.24 10.24-10.24s10.24 4.5056 10.24 10.24v71.8848c0 2.6624-1.024 5.3248-3.072 7.168l-33.3824 33.3824c-1.8432 2.2528-4.5056 3.2768-7.168 3.2768zM649.6256 956.8256c-5.7344 0-10.24-4.5056-10.24-10.24v-12.9024c0-5.7344 4.5056-10.24 10.24-10.24s10.24 4.5056 10.24 10.24v12.9024c0 5.5296-4.7104 10.24-10.24 10.24zM742.6048 864.8704h-92.9792c-5.7344 0-10.24-4.5056-10.24-10.24s4.5056-10.24 10.24-10.24h92.9792c5.7344 0 10.24 4.5056 10.24 10.24s-4.5056 10.24-10.24 10.24zM802.6112 864.8704h-11.0592c-5.7344 0-10.24-4.5056-10.24-10.24s4.5056-10.24 10.24-10.24h11.0592c5.7344 0 10.24 4.5056 10.24 10.24s-4.5056 10.24-10.24 10.24zM586.1376 915.6608c-2.6624 0-5.3248-1.024-7.168-3.072l-33.3824-33.3824c-1.8432-1.8432-3.072-4.5056-3.072-7.168v-71.8848c0-5.7344 4.5056-10.24 10.24-10.24s10.24 4.5056 10.24 10.24v67.7888l30.3104 30.3104c4.096 4.096 4.096 10.4448 0 14.5408-2.048 1.8432-4.7104 2.8672-7.168 2.8672z" fill="#1C1D21" /><path d="M374.3744 910.9504c-5.7344 0-10.24-4.5056-10.24-10.24v-46.2848c0-2.6624 1.024-5.3248 3.072-7.168l54.4768-54.4768c4.096-4.096 10.4448-4.096 14.5408 0s4.096 10.4448 0 14.5408l-51.4048 51.4048v41.984c-0.2048 5.7344-4.7104 10.24-10.4448 10.24zM649.6256 910.9504c-5.7344 0-10.24-4.5056-10.24-10.24v-41.984l-51.4048-51.4048c-4.096-4.096-4.096-10.4448 0-14.5408s10.4448-4.096 14.5408 0l54.4768 54.4768c1.8432 1.8432 3.072 4.5056 3.072 7.168v46.2848c-0.2048 5.7344-4.9152 10.24-10.4448 10.24z" fill="#1C1D21" /></svg>