<svg class="svg-icon" style="width: 1em; height: 1em;vertical-align: middle;fill: currentColor;overflow: hidden;" viewBox="0 0 1024 1024" version="1.1" xmlns="http://www.w3.org/2000/svg"><path d="M512 512m-501.76 0a501.76 501.76 0 1 0 1003.52 0 501.76 501.76 0 1 0-1003.52 0Z" fill="#8CEEF9" /><path d="M640.6144 691.8144H387.072V164.6592c0-16.9984 13.7216-30.72 30.72-30.72h192.1024c16.9984 0 30.72 13.7216 30.72 30.72v527.1552z" fill="#FFC5B3" /><path d="M640.6144 702.0544H387.072c-5.7344 0-10.24-4.5056-10.24-10.24V164.6592c0-22.528 18.432-40.96 40.96-40.96h192.1024c22.528 0 40.96 18.432 40.96 40.96v527.1552c0 5.7344-4.5056 10.24-10.24 10.24z m-243.3024-20.48h233.0624V164.6592c0-11.264-9.216-20.48-20.48-20.48H417.792c-11.264 0-20.48 9.216-20.48 20.48v516.9152z" fill="#1C1D21" /><path d="M672.768 133.9392H608.256c15.9744 0 28.8768 12.9024 28.8768 28.8768v528.9984h64.512V162.816c-0.2048-15.9744-13.1072-28.8768-28.8768-28.8768z" fill="#C67552" /><path d="M701.44 702.0544H636.928c-5.7344 0-10.24-4.5056-10.24-10.24V162.816c0-10.24-8.3968-18.6368-18.6368-18.6368-5.7344 0-10.24-4.5056-10.24-10.24s4.5056-10.24 10.24-10.24h64.512c21.504 0 39.1168 17.6128 39.1168 39.1168v528.9984c0 5.7344-4.5056 10.24-10.24 10.24z m-54.272-20.48h44.032V162.816c0-10.24-8.3968-18.6368-18.6368-18.6368h-30.3104c3.072 5.5296 4.7104 11.8784 4.7104 18.6368v518.7584z" fill="#1C1D21" /><path d="M444.8256 294.5024h138.24v71.0656h-138.24z" fill="#8CEEF9" /><path d="M582.8608 294.5024h-138.0352v71.0656z" fill="#FFECE9" /><path d="M444.8256 191.2832h138.24v65.3312h-138.24z" fill="#8CEEF9" /><path d="M582.8608 191.2832h-138.0352v65.3312z" fill="#FFECE9" /><path d="M582.8608 375.808h-138.24c-5.7344 0-10.24-4.5056-10.24-10.24v-71.0656c0-5.7344 4.5056-10.24 10.24-10.24h138.24c5.7344 0 10.24 4.5056 10.24 10.24v71.0656c0 5.5296-4.5056 10.24-10.24 10.24z m-127.7952-20.48h117.76v-50.5856h-117.76v50.5856zM582.8608 266.8544h-138.24c-5.7344 0-10.24-4.5056-10.24-10.24V191.2832c0-5.7344 4.5056-10.24 10.24-10.24h138.24c5.7344 0 10.24 4.5056 10.24 10.24v65.3312c0 5.5296-4.5056 10.24-10.24 10.24z m-127.7952-20.48h117.76V201.5232h-117.76v44.8512z" fill="#1C1D21" /><path d="M513.8432 266.8544c-5.7344 0-10.24-4.5056-10.24-10.24V191.2832c0-5.7344 4.5056-10.24 10.24-10.24s10.24 4.5056 10.24 10.24v65.3312c0 5.5296-4.5056 10.24-10.24 10.24zM513.8432 375.808c-5.7344 0-10.24-4.5056-10.24-10.24v-71.0656c0-5.7344 4.5056-10.24 10.24-10.24s10.24 4.5056 10.24 10.24v71.0656c0 5.5296-4.5056 10.24-10.24 10.24z" fill="#1C1D21" /><path d="M444.8256 397.5168h138.24v71.0656h-138.24z" fill="#8CEEF9" /><path d="M582.8608 397.5168h-138.0352v71.0656z" fill="#FFECE9" /><path d="M582.8608 478.8224h-138.24c-5.7344 0-10.24-4.5056-10.24-10.24v-71.0656c0-5.7344 4.5056-10.24 10.24-10.24h138.24c5.7344 0 10.24 4.5056 10.24 10.24v71.0656c0 5.7344-4.5056 10.24-10.24 10.24z m-127.7952-20.48h117.76v-50.5856h-117.76v50.5856z" fill="#1C1D21" /><path d="M513.8432 478.8224c-5.7344 0-10.24-4.5056-10.24-10.24v-71.0656c0-5.7344 4.5056-10.24 10.24-10.24s10.24 4.5056 10.24 10.24v71.0656c0 5.7344-4.5056 10.24-10.24 10.24z" fill="#1C1D21" /><path d="M261.9392 222.6176c-32.9728 19.0464-55.296 54.6816-55.296 95.6416 0 40.96 22.1184 76.5952 55.296 95.6416 32.9728-19.0464 55.296-54.6816 55.296-95.6416 0-40.7552-22.3232-76.3904-55.296-95.6416z" fill="#0ABFB2" /><path d="M261.9392 424.1408c-1.8432 0-3.4816-0.4096-5.12-1.4336-37.2736-21.504-60.416-61.6448-60.416-104.448 0-43.008 23.1424-82.944 60.416-104.448 3.072-1.8432 7.168-1.8432 10.24 0 37.2736 21.504 60.416 61.6448 60.416 104.448 0 43.008-23.1424 82.944-60.416 104.448-1.4336 1.024-3.2768 1.4336-5.12 1.4336z m0-189.44c-27.8528 18.432-45.056 49.9712-45.056 83.5584s16.9984 65.1264 45.056 83.5584c27.8528-18.432 45.056-49.9712 45.056-83.5584s-17.2032-65.1264-45.056-83.5584z" fill="#1C1D21" /><path d="M261.9392 613.376c-5.7344 0-10.24-4.5056-10.24-10.24V222.6176c0-5.7344 4.5056-10.24 10.24-10.24s10.24 4.5056 10.24 10.24v380.5184c0 5.5296-4.5056 10.24-10.24 10.24z" fill="#1C1D21" /><path d="M384.6144 343.2448c-24.1664-6.5536-51.2-0.2048-70.2464 18.8416-19.0464 19.0464-25.1904 45.8752-18.8416 70.2464 24.1664 6.5536 51.2 0.2048 70.2464-18.8416 19.0464-19.0464 25.1904-46.08 18.8416-70.2464z" fill="#0ABFB2" /><path d="M314.1632 444.8256c-7.168 0-14.336-0.8192-21.2992-2.8672-3.4816-1.024-6.3488-3.6864-7.168-7.168-7.5776-28.4672 0.6144-59.1872 21.504-80.0768 20.8896-20.8896 51.6096-29.0816 80.0768-21.504 3.4816 1.024 6.3488 3.6864 7.168 7.168 7.5776 28.4672-0.6144 59.1872-21.504 80.0768-15.5648 15.9744-36.864 24.3712-58.7776 24.3712z m-10.0352-21.2992c19.6608 3.2768 40.1408-3.2768 54.4768-17.408 14.336-14.336 20.6848-34.6112 17.408-54.4768-19.6608-3.2768-40.1408 3.2768-54.4768 17.408-14.1312 14.5408-20.6848 34.816-17.408 54.4768z" fill="#1C1D21" /><path d="M261.9392 475.9552c-2.6624 0-5.3248-1.024-7.168-3.072-4.096-4.096-4.096-10.4448 0-14.5408l122.6752-122.6752c4.096-4.096 10.4448-4.096 14.5408 0s4.096 10.4448 0 14.5408l-122.6752 122.88c-2.048 1.8432-4.7104 2.8672-7.3728 2.8672z" fill="#1C1D21" /><path d="M139.4688 343.2448c24.1664-6.5536 51.2-0.2048 70.2464 18.8416 19.0464 19.0464 25.1904 45.8752 18.8416 70.2464-24.1664 6.5536-51.2 0.2048-70.2464-18.8416-19.0464-19.0464-25.3952-46.08-18.8416-70.2464z" fill="#0ABFB2" /><path d="M209.7152 444.8256c-21.7088 0-43.008-8.6016-58.7776-24.1664-20.8896-20.8896-29.0816-51.6096-21.504-80.0768 1.024-3.4816 3.6864-6.3488 7.168-7.168 28.4672-7.5776 59.1872 0.6144 80.0768 21.504 20.8896 20.8896 29.0816 51.6096 21.504 80.0768-1.024 3.4816-3.6864 6.3488-7.168 7.168-6.9632 1.8432-14.1312 2.6624-21.2992 2.6624z m-61.6448-92.9792c-3.2768 19.6608 3.2768 40.1408 17.408 54.4768 14.336 14.336 34.6112 20.6848 54.4768 17.408 3.2768-19.6608-3.2768-40.1408-17.408-54.4768-14.336-14.336-34.816-20.6848-54.4768-17.408z" fill="#1C1D21" /><path d="M261.9392 475.9552c-2.6624 0-5.3248-1.024-7.168-3.072L132.096 350.208c-4.096-4.096-4.096-10.4448 0-14.5408s10.4448-4.096 14.5408 0l122.6752 122.6752c4.096 4.096 4.096 10.4448 0 14.5408-2.048 2.048-4.7104 3.072-7.3728 3.072z" fill="#1C1D21" /><path d="M512 1024c-136.8064 0-265.4208-53.248-362.0864-149.9136C53.248 777.4208 0 648.8064 0 512S53.248 246.5792 149.9136 149.9136C246.5792 53.248 375.1936 0 512 0s265.4208 53.248 362.0864 149.9136C970.752 246.5792 1024 375.1936 1024 512s-53.248 265.4208-149.9136 362.0864C777.4208 970.752 648.8064 1024 512 1024z m0-1003.52C241.0496 20.48 20.48 241.0496 20.48 512s220.5696 491.52 491.52 491.52 491.52-220.5696 491.52-491.52S782.9504 20.48 512 20.48z" fill="#1C1D21" /><path d="M512 1013.76c261.3248 0 475.9552-199.68 499.5072-454.8608-0.8192-9.0112-1.8432-17.8176-3.2768-26.624-8.3968 24.576-31.744 42.1888-58.9824 42.1888-34.4064 0-62.464-28.0576-62.464-62.464 0 34.4064-28.0576 62.464-62.464 62.464S761.856 546.4064 761.856 512c0 34.4064-28.0576 62.464-62.464 62.464S636.928 546.4064 636.928 512c0 34.4064-28.0576 62.464-62.464 62.464S512 546.4064 512 512c0 34.4064-28.0576 62.464-62.464 62.464S387.072 546.4064 387.072 512c0 34.4064-28.0576 62.464-62.464 62.464S262.144 546.4064 262.144 512c0 34.4064-28.0576 62.464-62.464 62.464-34.6112 0-62.464-28.0576-62.464-62.464 0 34.4064-28.0576 62.464-62.464 62.464-27.4432 0-50.5856-17.6128-58.9824-42.1888-1.2288 8.8064-2.4576 17.8176-3.2768 26.624C36.0448 814.08 250.6752 1013.76 512 1013.76z" fill="#508DEF" /><path d="M749.1584 732.9792l-41.7792-59.392c-14.7456-20.8896-38.7072-33.3824-64.512-33.3824H415.9488c-52.4288 0-95.0272 42.5984-95.0272 95.0272v90.5216h552.7552V788.48c0-30.72-24.9856-55.7056-55.7056-55.7056h-68.8128z" fill="#FF3E63" /><path d="M873.6768 835.9936h-552.96c-5.7344 0-10.24-4.5056-10.24-10.24V735.232c0-58.1632 47.3088-105.2672 105.2672-105.2672h227.1232c28.8768 0 56.1152 14.1312 72.9088 37.888l38.7072 55.0912h63.488c36.2496 0 65.9456 29.4912 65.9456 65.9456v37.2736c0 5.3248-4.7104 9.8304-10.24 9.8304z m-542.72-20.48h532.48V788.48c0-24.9856-20.2752-45.4656-45.4656-45.4656h-68.8128c-3.2768 0-6.5536-1.6384-8.3968-4.3008l-41.7792-59.392c-12.9024-18.2272-33.792-29.0816-56.1152-29.0816H415.9488c-46.6944 0-84.7872 38.0928-84.7872 84.7872v80.4864z" fill="#1C1D21" /><path d="M482.0992 691.4048h-3.072c-5.7344 0-10.24-4.5056-10.24-10.24s4.5056-10.24 10.24-10.24h3.072c5.7344 0 10.24 4.5056 10.24 10.24s-4.7104 10.24-10.24 10.24zM361.6768 773.12c-5.7344 0-10.24-4.5056-10.24-10.24V735.232c0-35.4304 28.8768-64.3072 64.3072-64.3072h27.2384c5.7344 0 10.24 4.5056 10.24 10.24s-4.5056 10.24-10.24 10.24H415.744c-24.1664 0-43.8272 19.6608-43.8272 43.8272v27.648c0 5.7344-4.5056 10.24-10.24 10.24z" fill="#FFAEC3" /><path d="M748.1344 731.5456l-40.7552-57.9584c-14.7456-20.8896-38.7072-33.3824-64.512-33.3824h-126.3616v91.3408h231.6288z" fill="#E0E0E0" /><path d="M749.1584 743.2192H516.7104c-5.7344 0-10.24-4.5056-10.24-10.24v-92.7744c0-5.7344 4.5056-10.24 10.24-10.24H643.072c28.8768 0 56.1152 14.1312 72.9088 37.888l41.7792 59.392c2.2528 3.072 2.4576 7.168 0.6144 10.6496-1.8432 3.2768-5.3248 5.3248-9.216 5.3248z m-222.208-20.48h202.5472l-30.5152-43.2128c-12.9024-18.2272-33.792-29.0816-56.1152-29.0816h-116.1216v72.2944z" fill="#1C1D21" /><path d="M649.4208 673.5872l33.792 47.9232c4.9152 7.168 13.1072 11.264 21.9136 11.264h44.2368l-41.7792-59.392c-14.7456-20.8896-38.7072-33.3824-64.512-33.3824h-57.9584c25.3952 0.2048 49.3568 12.6976 64.3072 33.5872z" fill="#AAADAD" /><path d="M749.1584 743.2192h-44.2368c-12.0832 0-23.3472-5.9392-30.3104-15.7696L641.024 679.5264c-12.9024-18.2272-33.792-29.0816-56.1152-29.0816-5.7344 0-10.24-4.5056-10.24-10.24s4.5056-10.24 10.24-10.24h57.9584c28.8768 0 56.1152 14.1312 72.9088 37.888l41.7792 59.392c2.2528 3.072 2.4576 7.168 0.6144 10.6496-1.6384 3.2768-5.12 5.3248-9.0112 5.3248zM657.6128 667.648l33.792 47.9232c3.072 4.3008 8.192 6.9632 13.5168 6.9632h24.3712l-30.5152-43.2128c-12.9024-18.2272-33.792-29.0816-56.1152-29.0816h-1.2288c6.3488 5.12 11.6736 10.8544 16.1792 17.408z" fill="#1C1D21" /><path d="M696.32 743.2192H482.0992c-5.7344 0-10.24-4.5056-10.24-10.24s4.5056-10.24 10.24-10.24H696.32c5.7344 0 10.24 4.5056 10.24 10.24s-4.5056 10.24-10.24 10.24z" fill="#1C1D21" /><path d="M903.9872 825.344c-16.7936-0.4096-30.1056-13.9264-30.1056-30.72 0 16.9984-13.7216 30.72-30.72 30.72s-30.72-13.7216-30.72-30.72c0 16.9984-13.7216 30.72-30.72 30.72s-30.72-13.7216-30.72-30.72c0 16.9984-13.7216 30.72-30.72 30.72s-30.72-13.7216-30.72-30.72c0 16.9984-13.7216 30.72-30.72 30.72s-30.72-13.7216-30.72-30.72c0 16.9984-13.7216 30.72-30.72 30.72s-30.72-13.7216-30.72-30.72c0 16.9984-13.7216 30.72-30.72 30.72s-30.72-13.7216-30.72-30.72c0 16.9984-13.7216 30.72-30.72 30.72-15.36 0-28.0576-11.264-30.3104-26.0096-2.2528 14.7456-14.9504 26.0096-30.3104 26.0096-16.9984 0-30.72-13.7216-30.72-30.72 0 16.9984-13.7216 30.72-30.72 30.72s-30.72-13.7216-30.72-30.72c0 16.9984-13.7216 30.72-30.72 30.72v29.9008h587.9808c7.9872-9.8304 16.7936-19.6608 24.9856-29.9008z" fill="#508DEF" /><path d="M442.9824 794.4192c0 1.6384 0.2048 3.2768 0.4096 4.7104 0.2048-1.6384 0.4096-3.072 0.4096-4.7104h-0.8192z" fill="#508DEF" /><path d="M431.5136 743.2192h-12.6976c-5.7344 0-10.24-4.5056-10.24-10.24s4.5056-10.24 10.24-10.24h12.6976c5.7344 0 10.24 4.5056 10.24 10.24s-4.5056 10.24-10.24 10.24zM842.9568 835.584c-12.288 0-23.3472-5.3248-30.72-13.9264-7.5776 8.6016-18.432 13.9264-30.72 13.9264s-23.3472-5.3248-30.72-13.9264c-7.5776 8.6016-18.432 13.9264-30.72 13.9264s-23.3472-5.3248-30.72-13.9264c-7.5776 8.6016-18.432 13.9264-30.72 13.9264s-23.3472-5.3248-30.72-13.9264c-7.5776 8.6016-18.432 13.9264-30.72 13.9264s-23.3472-5.3248-30.72-13.9264c-7.5776 8.6016-18.432 13.9264-30.72 13.9264s-23.3472-5.3248-30.72-13.9264c-7.5776 8.6016-18.432 13.9264-30.72 13.9264-12.0832 0-22.9376-5.12-30.3104-13.5168-7.5776 8.192-18.432 13.5168-30.3104 13.5168-12.288 0-23.3472-5.3248-30.72-13.9264-7.5776 8.6016-18.432 13.9264-30.72 13.9264s-23.3472-5.3248-30.72-13.9264c-7.5776 8.6016-18.432 13.9264-30.72 13.9264-5.7344 0-10.24-4.5056-10.24-10.24s4.5056-10.24 10.24-10.24c11.264 0 20.48-9.216 20.48-20.48 0-5.7344 4.5056-10.24 10.24-10.24s10.24 4.5056 10.24 10.24c0 11.264 9.216 20.48 20.48 20.48s20.48-9.216 20.48-20.48c0-5.7344 4.5056-10.24 10.24-10.24s10.24 4.5056 10.24 10.24c0 11.264 9.216 20.48 20.48 20.48 9.6256 0 17.8176-6.7584 20.0704-15.7696-0.2048-1.6384-0.2048-3.072-0.2048-4.7104 0-5.7344 4.5056-10.24 10.24-10.24h0.8192c5.7344 0 10.24 4.5056 10.24 10.24 0 1.6384 0 3.072-0.2048 4.7104 2.048 9.0112 10.24 15.7696 20.0704 15.7696 11.264 0 20.48-9.216 20.48-20.48 0-5.7344 4.5056-10.24 10.24-10.24s10.24 4.5056 10.24 10.24c0 11.264 9.216 20.48 20.48 20.48s20.48-9.216 20.48-20.48c0-5.7344 4.5056-10.24 10.24-10.24s10.24 4.5056 10.24 10.24c0 11.264 9.216 20.48 20.48 20.48s20.48-9.216 20.48-20.48c0-5.7344 4.5056-10.24 10.24-10.24s10.24 4.5056 10.24 10.24c0 11.264 9.216 20.48 20.48 20.48s20.48-9.216 20.48-20.48c0-5.7344 4.5056-10.24 10.24-10.24s10.24 4.5056 10.24 10.24c0 11.264 9.216 20.48 20.48 20.48s20.48-9.216 20.48-20.48c0-5.7344 4.5056-10.24 10.24-10.24s10.24 4.5056 10.24 10.24c0 11.264 9.216 20.48 20.48 20.48s20.48-9.216 20.48-20.48c0-5.7344 4.5056-10.24 10.24-10.24s10.24 4.5056 10.24 10.24c0 11.264 9.216 20.48 20.48 20.48s20.48-9.216 20.48-20.48c0-5.7344 4.5056-10.24 10.24-10.24s10.24 4.5056 10.24 10.24c0 11.4688 8.8064 20.48 19.8656 20.48 5.7344 0 10.24 4.5056 10.24 10.24s-4.5056 10.24-10.24 10.24c-12.288 0-22.9376-5.3248-30.3104-13.7216-7.7824 8.3968-18.6368 13.7216-30.9248 13.7216zM267.8784 702.0544c-12.0832 0-22.9376-5.12-30.3104-13.5168-7.5776 8.192-18.432 13.5168-30.3104 13.5168-12.288 0-23.3472-5.3248-30.72-13.9264-7.5776 8.6016-18.432 13.9264-30.72 13.9264-5.7344 0-10.24-4.5056-10.24-10.24s4.5056-10.24 10.24-10.24c11.264 0 20.48-9.216 20.48-20.48 0-5.7344 4.5056-10.24 10.24-10.24s10.24 4.5056 10.24 10.24c0 11.264 9.216 20.48 20.48 20.48 9.6256 0 17.8176-6.7584 20.0704-15.7696-0.2048-1.6384-0.2048-3.072-0.2048-4.7104 0-5.7344 4.5056-10.24 10.24-10.24h0.8192c5.7344 0 10.24 4.5056 10.24 10.24 0 1.6384 0 3.2768-0.2048 4.7104 2.048 9.0112 10.24 15.7696 20.0704 15.7696 5.7344 0 10.24 4.5056 10.24 10.24s-4.9152 10.24-10.6496 10.24zM917.0944 686.6944c-12.0832 0-22.9376-5.12-30.3104-13.5168-7.5776 8.192-18.432 13.5168-30.3104 13.5168-12.288 0-23.3472-5.3248-30.72-13.9264-7.5776 8.6016-18.432 13.9264-30.72 13.9264-5.7344 0-10.24-4.5056-10.24-10.24s4.5056-10.24 10.24-10.24c11.264 0 20.48-9.216 20.48-20.48 0-5.7344 4.5056-10.24 10.24-10.24s10.24 4.5056 10.24 10.24c0 11.264 9.216 20.48 20.48 20.48 9.6256 0 17.8176-6.7584 20.0704-15.7696-0.2048-1.6384-0.2048-3.072-0.2048-4.7104 0-5.7344 4.5056-10.24 10.24-10.24h0.8192c5.7344 0 10.24 4.5056 10.24 10.24 0 1.6384 0 3.072-0.2048 4.7104 2.048 9.0112 10.24 15.7696 20.0704 15.7696 5.7344 0 10.24 4.5056 10.24 10.24s-5.12 10.24-10.6496 10.24zM573.0304 957.6448c-12.0832 0-22.9376-5.12-30.3104-13.5168-7.5776 8.192-18.432 13.5168-30.3104 13.5168-12.288 0-23.3472-5.3248-30.72-13.9264-7.5776 8.6016-18.432 13.9264-30.72 13.9264-5.7344 0-10.24-4.5056-10.24-10.24s4.5056-10.24 10.24-10.24c11.264 0 20.48-9.216 20.48-20.48 0-5.7344 4.5056-10.24 10.24-10.24s10.24 4.5056 10.24 10.24c0 11.264 9.216 20.48 20.48 20.48 9.6256 0 17.8176-6.7584 20.0704-15.7696-0.2048-1.6384-0.2048-3.072-0.2048-4.7104 0-5.7344 4.5056-10.24 10.24-10.24h0.8192c5.7344 0 10.24 4.5056 10.24 10.24 0 1.6384 0 3.072-0.2048 4.7104 2.048 9.0112 10.24 15.7696 20.0704 15.7696 5.7344 0 10.24 4.5056 10.24 10.24s-4.9152 10.24-10.6496 10.24z" fill="#1C1D21" /><path d="M512 1024c-128.4096 0-251.2896-47.7184-345.7024-134.3488-94.0032-86.2208-152.1664-203.1616-164.0448-329.728v-1.8432c0.8192-9.0112 2.048-18.2272 3.2768-27.2384 0.6144-4.7104 4.5056-8.192 9.216-8.8064 4.7104-0.4096 9.0112 2.4576 10.6496 6.9632 7.168 21.0944 27.0336 35.2256 49.3568 35.2256 28.8768 0 52.224-23.3472 52.224-52.224 0-5.7344 4.5056-10.24 10.24-10.24s10.24 4.5056 10.24 10.24c0 28.8768 23.3472 52.224 52.224 52.224S251.904 540.8768 251.904 512c0-5.7344 4.5056-10.24 10.24-10.24s10.24 4.5056 10.24 10.24c0 28.8768 23.3472 52.224 52.224 52.224S376.832 540.8768 376.832 512c0-5.7344 4.5056-10.24 10.24-10.24s10.24 4.5056 10.24 10.24c0 28.8768 23.3472 52.224 52.224 52.224S501.76 540.8768 501.76 512c0-5.7344 4.5056-10.24 10.24-10.24s10.24 4.5056 10.24 10.24c0 28.8768 23.3472 52.224 52.224 52.224S626.688 540.8768 626.688 512c0-5.7344 4.5056-10.24 10.24-10.24s10.24 4.5056 10.24 10.24c0 28.8768 23.3472 52.224 52.224 52.224S751.616 540.8768 751.616 512c0-5.7344 4.5056-10.24 10.24-10.24s10.24 4.5056 10.24 10.24c0 28.8768 23.3472 52.224 52.224 52.224S876.544 540.8768 876.544 512c0-5.7344 4.5056-10.24 10.24-10.24s10.24 4.5056 10.24 10.24c0 28.8768 23.3472 52.224 52.224 52.224 22.3232 0 42.1888-14.1312 49.3568-35.2256 1.4336-4.5056 5.9392-7.3728 10.6496-6.9632 4.7104 0.4096 8.6016 4.096 9.216 8.8064 1.2288 9.0112 2.4576 18.0224 3.2768 27.2384v1.8432c-11.6736 126.3616-70.0416 243.5072-164.0448 329.728C763.2896 976.2816 640.4096 1024 512 1024zM23.1424 563.2C49.152 814.6944 258.2528 1003.52 512 1003.52s462.848-188.8256 488.8576-440.32c-13.312 13.5168-31.744 21.504-51.6096 21.504-26.4192 0-49.7664-14.336-62.464-35.6352-12.6976 21.2992-36.0448 35.6352-62.464 35.6352s-49.7664-14.336-62.464-35.6352c-12.6976 21.2992-36.0448 35.6352-62.464 35.6352s-49.7664-14.336-62.464-35.6352c-12.6976 21.2992-36.0448 35.6352-62.464 35.6352s-49.7664-14.336-62.464-35.6352c-12.6976 21.2992-36.0448 35.6352-62.464 35.6352s-49.7664-14.336-62.464-35.6352c-12.6976 21.2992-36.0448 35.6352-62.464 35.6352s-49.7664-14.336-62.464-35.6352c-12.6976 21.2992-36.0448 35.6352-62.464 35.6352s-49.7664-14.336-62.464-35.6352c-12.6976 21.2992-36.0448 35.6352-62.464 35.6352-19.8656 0-38.2976-7.9872-51.6096-21.504z" fill="#1C1D21" /><path d="M252.928 835.9936h-21.9136c-5.7344 0-10.24-4.5056-10.24-10.24s4.5056-10.24 10.24-10.24h21.9136c5.7344 0 10.24 4.5056 10.24 10.24s-4.5056 10.24-10.24 10.24z" fill="#1C1D21" /><path d="M191.488 835.9936h-6.144c-5.7344 0-10.24-4.5056-10.24-10.24s4.5056-10.24 10.24-10.24h6.144c5.7344 0 10.24 4.5056 10.24 10.24s-4.5056 10.24-10.24 10.24z" fill="#1C1D21" /></svg>